<svg aria-hidden="true" style="position: absolute; width: 0; height: 0; overflow: hidden;" version="1.1" xmlns="http://www.w3.org/2000/svg" xmlns:xlink="http://www.w3.org/1999/xlink">
<defs>
<symbol id="icon-house" viewBox="0 0 32 32">
<path fill="#2874a6" style="fill: var(--color1, #2874a6)" d="M31.462 14.306l-14.357-13.084c-0.29-0.267-0.678-0.43-1.105-0.43s-0.815 0.164-1.106 0.431l0.001-0.001-14.357 13.084c-0.331 0.3-0.539 0.731-0.539 1.211 0 0.214 0.041 0.418 0.116 0.605l-0.004-0.011c0.241 0.618 0.832 1.047 1.522 1.047 0.003 0 0.007 0 0.010-0h2.293v13.109c0 0.518 0.42 0.939 0.941 0.939h7.87c0 0 0 0 0 0 0.519 0 0.94-0.42 0.941-0.939v-7.957h4.625v7.957c0 0.518 0.422 0.939 0.941 0.939h7.87c0 0 0 0 0 0 0.519 0 0.94-0.42 0.941-0.939v-13.109h2.293c0.683 0 1.284-0.41 1.53-1.045 0.071-0.177 0.113-0.382 0.113-0.596 0-0.479-0.207-0.911-0.536-1.209l-0.001-0.001zM27.819 2.671h-6.321l7.262 6.603v-5.662c-0.001-0.519-0.422-0.939-0.941-0.939 0 0 0 0 0 0v0z"></path>
</symbol>
<symbol id="icon-email" viewBox="0 0 32 32">
<path fill="#2874a6" style="fill: var(--color1, #2874a6)" d="M21.212 16.164l10.788 6.82v-13.931l-10.788 7.113zM0 9.056v13.929l10.788-6.82-10.788-7.108zM29.999 5.001h-28c-0.987 0.009-1.801 0.741-1.938 1.692l-0.001 0.011 15.94 10.5 15.94-10.5c-0.138-0.962-0.953-1.695-1.941-1.702h-0.001zM19.379 17.372l-2.829 1.865c-0.155 0.104-0.345 0.165-0.55 0.165s-0.396-0.062-0.554-0.168l0.004 0.002-2.829-1.867-12.557 7.942c0.143 0.955 0.954 1.68 1.936 1.687h27.999c0.982-0.007 1.793-0.731 1.936-1.674l0.001-0.011-12.557-7.945z"></path>
</symbol>
<symbol id="icon-phone" viewBox="0 0 32 32">
<path fill="#2874a6" style="fill: var(--color1, #2874a6)" d="M31.13 23.484l-4.467-4.465c-1.594-1.594-4.305-0.956-4.943 1.118-0.48 1.434-2.074 2.231-3.509 1.914-3.189-0.798-7.497-4.945-8.294-8.294-0.478-1.436 0.48-3.029 1.916-3.509 2.071-0.638 2.709-3.349 1.116-4.943l-4.465-4.467c-1.276-1.114-3.191-1.114-4.307 0l-3.029 3.029c-3.029 3.194 0.32 11.644 7.814 19.142 7.497 7.497 15.949 11.006 19.138 7.814l3.029-3.029c1.118-1.276 1.118-3.189 0-4.305z"></path>
</symbol>
<symbol id="icon-linkedin" viewBox="0 0 32 32">
<path d="M29 0h-26c-1.65 0-3 1.35-3 3v26c0 1.65 1.35 3 3 3h26c1.65 0 3-1.35 3-3v-26c0-1.65-1.35-3-3-3zM12 26h-4v-14h4v14zM10 10c-1.106 0-2-0.894-2-2s0.894-2 2-2c1.106 0 2 0.894 2 2s-0.894 2-2 2zM26 26h-4v-8c0-1.106-0.894-2-2-2s-2 0.894-2 2v8h-4v-14h4v2.481c0.825-1.131 2.087-2.481 3.5-2.481 2.488 0 4.5 2.238 4.5 5v9z"></path>
</symbol>
<symbol id="icon-github" viewBox="0 0 32 32">
<path d="M29.555 11.501l-14-9.333c-0.336-0.224-0.774-0.224-1.109 0l-14 9.333c-0.278 0.185-0.445 0.498-0.445 0.832v9.333c0 0.334 0.167 0.647 0.445 0.832l14 9.333c0.168 0.112 0.361 0.168 0.555 0.168s0.387-0.056 0.555-0.168l14-9.333c0.278-0.185 0.445-0.498 0.445-0.832v-9.333c0-0.334-0.167-0.647-0.445-0.832zM15 20.465l-5.197-3.465 5.197-3.465 5.197 3.465-5.197 3.465zM16 11.798v-6.93l11.197 7.465-5.197 3.465-6-4zM14 11.798l-6 4-5.197-3.465 11.197-7.465v6.93zM6.197 17l-4.197 2.798v-5.596l4.197 2.798zM8 18.202l6 4v6.93l-11.197-7.465 5.197-3.465zM16 22.202l6-4 5.197 3.465-11.197 7.465v-6.93zM23.803 17l4.197-2.798v5.596l-4.197-2.798z"></path>
</symbol>
</defs>
</svg>
